<svg width="14" height="13" viewBox="0 0 14 13" fill="none" xmlns="http://www.w3.org/2000/svg">
<path d="M13.0317 4.44283L11.8651 3.85949C11.6492 3.75449 11.3809 3.83616 11.2759 4.05199C11.1651 4.27366 11.2526 4.53616 11.4684 4.64116L12.3959 5.10199V7.89616L10.2084 7.90199V1.91699C10.2084 0.750326 9.42675 0.166992 8.45841 0.166992H3.79175C2.82341 0.166992 2.04175 0.750326 2.04175 1.91699V11.3962H1.16675C0.927581 11.3962 0.729248 11.5945 0.729248 11.8337C0.729248 12.0728 0.927581 12.2712 1.16675 12.2712H11.0834C11.3226 12.2712 11.5209 12.0728 11.5209 11.8337C11.5209 11.5945 11.3226 11.3962 11.0834 11.3962H10.2084V8.77699L12.8334 8.77116C13.0784 8.77116 13.2709 8.57283 13.2709 8.33366V4.83366C13.2709 4.67033 13.1776 4.51866 13.0317 4.44283ZM3.50008 3.01949C3.50008 2.20866 3.99591 1.91699 4.60258 1.91699H7.65341C8.25425 1.91699 8.75008 2.20866 8.75008 3.01949V3.73699C8.75008 4.54199 8.25425 4.83366 7.64758 4.83366H4.60258C3.99591 4.83366 3.50008 4.54199 3.50008 3.73116V3.01949ZM3.79175 6.14616H5.54175C5.78091 6.14616 5.97925 6.34449 5.97925 6.58366C5.97925 6.82283 5.78091 7.02116 5.54175 7.02116H3.79175C3.55258 7.02116 3.35425 6.82283 3.35425 6.58366C3.35425 6.34449 3.55258 6.14616 3.79175 6.14616Z" fill="#90A3BF"/>
</svg>
